# xmcd
#
# Track frame offsets:
#	150
#	12887
#	26985
#	41950
#	55962
#	70687
#	87092
#	101645
#	113952
#	127925
#	140035
#	156370
#	173970
#	188430
#
# Disc length: 2688 seconds
#
# Revision: 0
# Processed by: cddbd v1.5.2PL0 Copyright (c) Steve Scherf et al.
# Submitted via: EasyCDDAExtractor 12.0.1.1
#
DISCID=c00a7e0e
DTITLE=John Brack and Bjøro Håland - Dialing On That Telephone
DYEAR=1997
DGENRE=Country
TTITLE0=Dialing On That Telephone (duet w Bjøro)
TTITLE1=When You Were Loving Me
TTITLE2=Head 'Em Off At The Past
TTITLE3=When You're In The Mood (duet w Bjøro)
TTITLE4=If You Want To Find Love (duet w Bjøro)
TTITLE5=World Of Hurtin'
TTITLE6=Lilly's White Lies
TTITLE7=Rock Of Ages (duet w Bjøro)
TTITLE8=I Always Fall In Love (with a broken heart) (duet w Bjøro)
TTITLE9=I Walk A Mile With Jesus
TTITLE10=Under One Moon
TTITLE11=Angel Eyes (duet w Bjøro)
TTITLE12=I Might
TTITLE13=The Yodeling Blues
EXTD=
EXTT0=
EXTT1=
EXTT2=
EXTT3=
EXTT4=
EXTT5=
EXTT6=
EXTT7=
EXTT8=
EXTT9=
EXTT10=
EXTT11=
EXTT12=
EXTT13=
PLAYORDER=
